# xmcd
#
# Track frame offsets: 
#        182
#        15240
#        29840
#        46245
#        59942
#        77007
#        91897
#        112480
#        134150
#        149092
#        168015
#        201297
#
# Disc length: 3008 seconds
#
# Revision: 3
# Processed by: cddbd v1.4PL0 Copyright (c) Steve Scherf et al.
# Submitted via: ExactAudioCopy v0.95a3
#
DISCID=b60bbe0c
DTITLE=Eddie Vinson - The Blues Collection # 57 - Cleanhead Blues
DYEAR=1900
DGENRE=
TTITLE0=Wee Baby Blues
TTITLE1=Wait a Minute
TTITLE2=I Had a Dream
TTITLE3=Kidney Stew
TTITLE4=Old Maid Boogie
TTITLE5=I'm in an Awful Mood
TTITLE6=Juice-Head Baby
TTITLE7=Things Ain't What They Used To Be
TTITLE8=Somebody's Got to Go
TTITLE9=Please Send Somebody To Love Me
TTITLE10=Hey Little Doggy
TTITLE11=Totsy
EXTD=BLUNC 057
EXTT0=
EXTT1=
EXTT2=
EXTT3=
EXTT4=
EXTT5=
EXTT6=
EXTT7=
EXTT8=
EXTT9=
EXTT10=
EXTT11=
PLAYORDER=
